<svg xmlns="http://www.w3.org/2000/svg" width="25" height="35" viewBox="0 0 25 35" fill="none">
  <path d="M9.1177 5.74565L10.9472 2.26577L11.7827 0.676294L11.6481 0.419615C11.523 0.181064 11.259 0.0291748 10.9692 0.0291748H5.63921C5.38027 0.0291748 5.13979 0.150837 5.00145 0.351081C4.86393 0.551324 4.84849 0.802058 4.9603 1.01503L8.28284 7.33496L9.1177 5.74565Z" fill="#63CFA0"/>
  <path d="M19.9992 0.345189C19.8577 0.14861 19.6115 0.0291748 19.3465 0.0291748H13.8928C13.5963 0.0291748 13.3259 0.178284 13.1981 0.412468L8.98635 8.09856C8.9833 8.10452 8.98255 8.11044 8.9795 8.11636C8.9728 8.12959 8.9697 8.1441 8.9637 8.15799C8.93664 8.22207 8.92088 8.28996 8.91709 8.3618C8.91629 8.37175 8.91029 8.3803 8.91029 8.39094V8.73922C9.95737 8.25889 11.146 7.98311 12.4076 7.98311C13.67 7.98311 14.8579 8.25893 15.9057 8.73992V8.54466L20.0413 0.997067C20.1558 0.787912 20.1399 0.541808 19.9992 0.345189Z" fill="#63CFA0"/>
  <path d="M12.504 9.58337C5.59952 9.58337 0.00336075 15.0555 0.00336075 21.8071C0.00336075 28.5573 5.59952 34.0294 12.504 34.0294C19.4071 34.0294 25.0034 28.5573 25.0034 21.8071C25.0035 15.0555 19.4071 9.58337 12.504 9.58337ZM19.9339 19.6728L16.5967 22.8557C16.4926 22.9559 16.444 23.0995 16.4691 23.2401L17.257 27.734C17.2846 27.896 17.2157 28.061 17.0793 28.1585C16.943 28.2561 16.761 28.2676 16.6128 28.1914L12.4852 26.0703C12.3562 26.004 12.2006 26.004 12.0714 26.0703L7.94376 28.1914C7.79555 28.2676 7.61361 28.2561 7.47727 28.1585C7.34093 28.061 7.27203 27.8959 7.2999 27.734L8.08769 23.2401C8.11245 23.0996 8.06402 22.9559 7.96003 22.8557L4.62286 19.6728C4.50123 19.5565 4.45865 19.3845 4.50991 19.2281C4.56291 19.0701 4.70217 18.9556 4.86794 18.9326L9.48405 18.277C9.62788 18.2569 9.75262 18.1681 9.81713 18.039L11.8811 13.9511C11.956 13.8033 12.11 13.7085 12.2786 13.7085C12.4473 13.7085 12.6011 13.8033 12.676 13.9511L14.74 18.039C14.8044 18.1681 14.9291 18.2569 15.0731 18.277L19.6892 18.9326C19.8549 18.9556 19.9944 19.0701 20.0472 19.2281C20.0982 19.3845 20.0554 19.5565 19.9339 19.6728Z" fill="#63CFA0"/>
</svg>